# xmcd CD database file
#
# Track frame offsets:
# 150
# 13649
# 27037
# 38516
# 47850
# 62318
# 74863
# 89978
# 102614
# 115201
#
# Disc length: 1774 seconds
#
# Revision: 0
# Processed by: cddbd v1.4PL0 Copyright (c) Steve Scherf et al.
# Submitted via: jack 2.99.3
#
DISCID=8906ec0a
DTITLE=Simon Lee and Adam Sikora - Home Recordings
DYEAR=1900
DGENRE=
TTITLE0=Good morning little school girl
TTITLE1=Stop jive me Mama
TTITLE2=The train I ride
TTITLE3=Diddie wah diddie
TTITLE4=Harmonica and Washboard Blues
TTITLE5=Lord Oh Lord
TTITLE6=Big Fat Mama
TTITLE7=You give me an account
TTITLE8=I crave my pigmeat
TTITLE9=I'm going to me a heaven of my own
EXTD=Simon Lee: guitar, vocal, washboard - Adam Sikora: harmonica
EXTT0=Sonny Boy (John Lee) Williamson
EXTT1=Blind Boy Fuller
EXTT2=Furry Lewis
EXTT3=Blind Blake
EXTT4=Simon Lee and Adam Sikora
EXTT5=Traditional
EXTT6=Simon Lee
EXTT7=Traditional
EXTT8=Blind Boy Fuller
EXTT9=Lightnin Hopkins
PLAYORDER=
